<svg width="300" height="420" viewBox="0 0 300 420" fill="none" xmlns="http://www.w3.org/2000/svg">
<g clip-path="url(#clip0)">
<path d="M0 133C0 119.193 11.1929 108 25 108H275C288.807 108 300 119.193 300 133V397C300 410.807 288.807 422 275 422H25C11.1929 422 0 410.807 0 397V133Z" fill="#8A71C0"/>
<path d="M214 153H86C68.3573 153 54 138.643 54 121V78.3333C54 72.4453 58.7787 67.6667 64.6667 67.6667H97.7333C102.704 43.3467 124.229 25 150 25C175.771 25 197.296 43.3467 202.267 67.6667H235.333C241.221 67.6667 246 72.4453 246 78.3333V121C246 138.643 231.643 153 214 153ZM75.3333 89V121C75.3333 126.867 80.112 131.667 86 131.667H214C219.888 131.667 224.667 126.867 224.667 121V89H192.667C186.779 89 182 84.2213 182 78.3333C182 60.6907 167.643 46.3333 150 46.3333C132.357 46.3333 118 60.6907 118 78.3333C118 84.2213 113.221 89 107.333 89H75.3333Z" fill="#EBEAEA"/>
<path d="M150.5 377C104.459 377 67 339.541 67 293.5C67 247.459 104.459 210 150.5 210C196.541 210 234 247.459 234 293.5C234 339.541 196.541 377 150.5 377ZM150.5 222.846C111.538 222.846 79.8462 254.55 79.8462 293.5C79.8462 332.45 111.538 364.154 150.5 364.154C189.462 364.154 221.154 332.45 221.154 293.5C221.154 254.55 189.462 222.846 150.5 222.846Z" fill="#2D2768"/>
<path d="M150.5 338.462C146.955 338.462 144.077 335.584 144.077 332.038V254.962C144.077 251.416 146.955 248.538 150.5 248.538C154.046 248.538 156.923 251.416 156.923 254.962V332.038C156.923 335.584 154.046 338.462 150.5 338.462Z" fill="#2D2768"/>
<path d="M189.039 299.923H111.962C108.416 299.923 105.539 297.046 105.539 293.5C105.539 289.954 108.416 287.077 111.962 287.077H189.039C192.584 287.077 195.462 289.954 195.462 293.5C195.462 297.046 192.584 299.923 189.039 299.923Z" fill="#2D2768"/>
</g>
<defs>
<clipPath id="clip0">
<rect width="300" height="420" fill="white"/>
</clipPath>
</defs>
</svg>
