<svg class='chat-logo' width="855" height="855" viewBox="0 0 855 855" fill="none" xmlns="http://www.w3.org/2000/svg">
<path d="M629.898 315.182H377.423C361.933 315.182 349.334 327.781 349.334 343.271V511.579C349.334 527.069 361.933 539.668 377.436 539.668H511.889L591.96 619.739C594.64 622.419 598.231 623.85 601.879 623.85C603.69 623.85 605.513 623.5 607.253 622.783C612.486 620.608 615.909 615.488 615.909 609.818V539.666H629.911C645.401 539.666 658 527.067 658 511.564V343.269C658 327.781 645.401 315.182 629.898 315.182ZM629.913 511.605H601.879C594.135 511.605 587.85 517.891 587.85 525.635V575.948L527.617 515.716C524.993 513.078 521.415 511.605 517.698 511.605L377.395 511.562V343.269L377.423 343.242L629.941 343.269L629.913 511.605Z" fill="black"/>
<path d="M481.197 397.985L488.154 388.039C494.288 379.269 506.822 378.089 514.486 385.559V385.559C521.473 392.37 521.473 403.601 514.486 410.412L507.835 416.895C502.736 421.865 499.861 428.684 499.861 435.804V446.935" stroke="black" stroke-width="9"/>
<path d="M509.148 463.376C509.148 467.917 505.467 471.597 500.927 471.597C496.386 471.597 492.706 467.917 492.706 463.376C492.706 458.836 496.386 455.156 500.927 455.156C505.467 455.156 509.148 458.836 509.148 463.376Z" fill="black"/>
<path d="M475.564 231H223.089C207.599 231 195 243.599 195 259.089V427.397C195 442.887 207.599 455.486 223.089 455.486H237.091V525.638C237.091 531.306 240.514 536.427 245.762 538.602C247.489 539.318 249.312 539.669 251.122 539.669C254.771 539.669 258.362 538.239 261.042 535.559L341.113 455.488H363.365C371.109 455.488 377.395 449.202 377.395 441.458V343.269L489.638 343.241C497.382 343.241 503.668 336.956 503.668 329.212V259.087C503.668 243.599 491.068 231 475.564 231ZM475.607 315.182H377.423C361.933 315.182 349.334 327.781 349.334 343.271V427.425H335.304C331.587 427.425 328.009 428.898 325.385 431.535L265.152 491.766V441.453C265.152 433.709 258.866 427.423 251.122 427.423L223.061 427.395L223.089 259.06L475.607 259.087V315.182Z" fill="black"/>
<path d="M326.644 312.488L333.601 302.542C339.735 293.772 352.269 292.591 359.933 300.062V300.062C366.92 306.873 366.92 318.104 359.933 324.914L353.282 331.398C348.183 336.368 345.308 343.187 345.308 350.307V361.438" stroke="black" stroke-width="9"/>
<path d="M354.595 377.879C354.595 382.419 350.914 386.1 346.374 386.1C341.834 386.1 338.153 382.419 338.153 377.879C338.153 373.339 341.834 369.658 346.374 369.658C350.914 369.658 354.595 373.339 354.595 377.879Z" fill="black"/>
<line x1="731" y1="54" x2="731" y2="106" stroke="black" stroke-width="10"/>
<line x1="765" y1="54" x2="765" y2="106" stroke="black" stroke-width="10"/>
<circle cx="747.5" cy="106.5" r="92.5" fill="#FF5858" stroke="black" stroke-width="10"/>
<path d="M783 128C783 147.882 767.106 164 747.5 164C727.894 164 712 147.882 712 128" stroke="black" stroke-width="10"/>
<line x1="731" y1="54" x2="731" y2="106" stroke="black" stroke-width="10"/>
<line x1="765" y1="54" x2="765" y2="106" stroke="black" stroke-width="10"/>
<circle cx="97.5" cy="748.5" r="92.5" fill="#83FFF8" stroke="black" stroke-width="10"/>
<path d="M133 770C133 789.882 117.106 806 97.5 806C77.8939 806 62 789.882 62 770" stroke="black" stroke-width="10"/>
<line x1="81" y1="696" x2="81" y2="748" stroke="black" stroke-width="10"/>
<line x1="115" y1="696" x2="115" y2="748" stroke="black" stroke-width="10"/>
<circle cx="97.5" cy="106.5" r="92.5" fill="#AF71FF" stroke="black" stroke-width="10"/>
<path d="M133 128C133 147.882 117.106 164 97.5 164C77.8939 164 62 147.882 62 128" stroke="black" stroke-width="10"/>
<line x1="81" y1="54" x2="81" y2="106" stroke="black" stroke-width="10"/>
<line x1="115" y1="54" x2="115" y2="106" stroke="black" stroke-width="10"/>
<circle cx="747.5" cy="748.5" r="92.5" fill="#FFF973" stroke="black" stroke-width="10"/>
<path d="M783 770C783 789.882 767.106 806 747.5 806C727.894 806 712 789.882 712 770" stroke="black" stroke-width="10"/>
<line x1="731" y1="696" x2="731" y2="748" stroke="black" stroke-width="10"/>
<line x1="765" y1="696" x2="765" y2="748" stroke="black" stroke-width="10"/>
</svg>
